<svg aria-hidden="true" style="position: absolute; width: 0; height: 0; overflow: hidden;" version="1.1" xmlns="http://www.w3.org/2000/svg" xmlns:xlink="http://www.w3.org/1999/xlink">
<defs>
<symbol id="icon-fedex" viewBox="0 0 116 32">
<path fill="#ff5a00" style="fill: var(--color1, #ff5a00)" d="M115.647 27.839c0-1.778-1.271-3.081-3.023-3.081-1.748 0-3.021 1.302-3.021 3.081 0 1.776 1.272 3.076 3.021 3.076 1.751 0 3.023-1.302 3.023-3.076zM111.83 27.997v2.012h-0.655v-4.437h1.628c0.954 0 1.391 0.413 1.391 1.219 0 0.496-0.337 0.89-0.774 0.947v0.019c0.378 0.060 0.518 0.395 0.595 1.007 0.059 0.397 0.139 1.085 0.281 1.247h-0.775c-0.18-0.417-0.163-1.007-0.302-1.501-0.114-0.376-0.317-0.513-0.751-0.513h-0.636v0.002l-0.004-0.001zM112.643 27.423c0.636 0 0.818-0.336 0.818-0.633 0-0.351-0.182-0.628-0.818-0.628h-0.813v1.262h0.813v-0.001zM108.883 27.839c0-2.191 1.753-3.672 3.738-3.672 1.992 0 3.743 1.481 3.743 3.672 0 2.187-1.75 3.67-3.743 3.67-1.985 0-3.738-1.483-3.738-3.67z"></path>
<path fill="#ff5a00" style="fill: var(--color1, #ff5a00)" d="M95.926 30.868l-4.311-4.796-4.273 4.796h-8.99l8.787-9.794-8.787-9.796h9.271l4.354 4.759 4.19-4.759h8.946l-8.743 9.755 8.865 9.835h-9.31zM61.088 30.868v-30.86h17.264v6.879h-9.951v4.392h9.951v6.619h-9.951v6.075h9.951v6.896h-17.264z"></path>
<path fill="#29007c" style="fill: var(--color2, #29007c)" d="M53.803 0.008v12.63h-0.081c-1.612-1.838-3.628-2.479-5.964-2.479-4.788 0-8.396 3.232-9.662 7.501-1.444-4.705-5.169-7.589-10.69-7.589-4.485 0-8.025 1.996-9.875 5.25v-4.043h-9.269v-4.39h10.116v-6.878h-18.379v30.859h8.262v-12.971h8.235c-0.254 0.997-0.38 2.023-0.377 3.051 0 6.434 4.956 10.956 11.284 10.956 5.319 0 8.827-2.48 10.681-6.994h-7.081c-0.957 1.359-1.684 1.76-3.599 1.76-2.22 0-4.135-1.922-4.135-4.198h14.419c0.625 5.112 4.64 9.519 10.15 9.519 2.377 0 4.553-1.159 5.883-3.118h0.080v1.999h7.285v-30.863l-7.283-0.001zM23.5 17.99c0.46-1.961 1.993-3.242 3.905-3.242 2.106 0 3.561 1.242 3.942 3.242h-7.848zM49.382 26.172c-2.684 0-4.353-2.481-4.353-5.073 0-2.771 1.452-5.432 4.353-5.432 3.010 0 4.209 2.663 4.209 5.432 0 2.625-1.27 5.073-4.209 5.073z"></path>
</symbol>
<symbol id="icon-arrow" viewBox="0 0 32 32">
<path fill="none" stroke="#289bde" style="stroke: var(--color3, #289bde)" stroke-linejoin="round" stroke-linecap="round" stroke-miterlimit="4" stroke-width="2.1333" d="M20 25.333l-9.333-9.333 9.333-9.333"></path>
</symbol>
<symbol id="icon-education" viewBox="0 0 250 32">
<path fill="#284890" style="fill: var(--color4, #284890)" d="M209.877 28.597c-2.589 1.836-5.759 2.847-9.095 2.844-8.831-0.003-15.843-6.813-15.84-15.716 0.003-8.842 7.064-15.73 15.772-15.726 7.521 0.003 14.733 5.345 14.73 13.458 0 4.312-1.814 9.461-6.543 9.459-1.618 0-2.803-0.54-4.146-2.365l-3.278-5.111 4.074-6.321 3.35 0.001-4.207 6.315 1.828 2.926c0.686 1.002 1.432 1.914 2.382 1.917 2.877 0 3.583-4.439 3.583-6.61 0.003-6.848-5.692-11.089-11.861-11.092-7.27-0.003-12.636 5.827-12.639 13.146-0.003 7.638 5.785 13.179 12.924 13.182 2.781-0.007 5.493-0.878 7.758-2.493l1.209 2.183z"></path>
<path fill="#cc2131" style="fill: var(--color5, #cc2131)" d="M191.652 9.114l2.784 0.001-0.003 8.903c0 1.014 0.038 1.249 0.238 1.621 0.305 0.601 0.95 0.93 1.848 0.933 1.188 0 1.946-0.584 2.063-1.575 0.040-0.296 0.040-0.491 0.040-1.211l0.006-8.667h2.767l-0.006 9.118c0 1.287-0.021 1.54-0.216 2.121-0.352 1.075-1.677 2.551-4.597 2.548-2.066 0-3.567-0.621-4.345-1.808-0.448-0.703-0.584-1.249-0.582-2.554l0.001-9.43z"></path>
<path fill="#284890" style="fill: var(--color4, #284890)" d="M0 31.109v-30.035h15.36l-1.321 3.601h-9.982v9.297h9.89v3.555h-9.89v9.98h11.394v3.601h-15.45zM43.707 15.796c0 6.199-3.145 11.713-11.941 11.713h-3.601v-22.833h3.647c8.158 0 11.896 4.921 11.896 11.12zM47.945 15.796c0-8.432-5.195-14.722-16.453-14.722h-7.384v30.035h7.384c11.076 0 16.453-6.791 16.453-15.313v0zM76.43 28.466c-1.869 1.914-4.74 3.1-8.933 3.1-3.919 0-6.609-1.046-8.385-2.737-2.325-2.278-2.917-5.649-2.917-8.612v-19.143h4.055v19.052c0 2.097 0.502 4.375 2.006 5.927 1.139 1.182 2.871 1.958 5.331 1.958 2.781 0 4.649-0.729 5.833-1.958 1.276-1.368 1.778-3.373 1.778-5.652v-19.326h4.056v19.596c0 2.962-0.865 5.789-2.826 7.794v0zM102.363 31.566c-9.116 0-14.63-6.471-14.63-15.132 0-8.706 6.199-15.587 15.405-15.587 3.464 0 6.152 0.821 7.702 1.731l-0.045 4.011c-2.279-1.414-4.466-2.233-7.703-2.233-6.792 0-10.984 5.242-10.984 11.804 0 6.793 4.056 11.758 10.803 11.758 2.598 0 5.058-0.773 7.155-1.914l1.185 3.146c-2.962 1.686-5.971 2.415-8.887 2.415v0zM134.119 19.761h-8.842l3.328-9.114c0.546-1.458 0.912-2.598 1.185-3.692h0.044c0.23 1.002 0.593 2.233 1.141 3.737l3.143 9.069zM142.87 31.109l-11.712-30.125h-2.6l-11.53 30.125h4.011l2.826-7.837h11.622l3.054 7.837h4.329zM165.237 4.676h-8.385v26.433h-4.102v-26.433h-8.615v-3.601h22.333l-1.231 3.601zM173.030 31.109v-30.035h4.056v30.035h-4.056zM245.404 31.109l-14.674-19.369c-1.642-2.097-2.461-3.281-3.1-4.466h-0.090c0.090 1.004 0.136 2.233 0.136 3.737v20.098h-4.057v-30.035h4.149l14.081 18.641c1.825 2.415 2.689 3.556 3.282 4.785h0.090c-0.057-1.305-0.088-2.612-0.090-3.919v-19.507h4.056v30.035h-3.783z"></path>
</symbol>
<symbol id="icon-indeed" viewBox="0 0 123 32">
<path fill="#808080" style="fill: var(--color6, #808080)" d="M119.428 5.586h0.539c0.258 0 0.435-0.039 0.53-0.115 0.046-0.036 0.082-0.082 0.106-0.135s0.036-0.11 0.034-0.168c0.002-0.078-0.023-0.154-0.068-0.218-0.046-0.066-0.113-0.115-0.188-0.142-0.079-0.034-0.229-0.048-0.447-0.048h-0.505v0.826zM118.982 7.135v-2.748h0.947c0.323 0 0.558 0.026 0.704 0.076s0.26 0.14 0.346 0.267c0.086 0.125 0.13 0.259 0.13 0.4 0 0.202-0.073 0.376-0.216 0.525-0.144 0.148-0.335 0.232-0.573 0.25 0.098 0.040 0.176 0.089 0.235 0.145 0.109 0.107 0.245 0.29 0.406 0.545l0.335 0.539h-0.547l-0.243-0.434c-0.194-0.339-0.347-0.552-0.461-0.638-0.082-0.065-0.199-0.097-0.354-0.097h-0.262v1.169h-0.446zM120.104 3.585c-0.36 0-0.712 0.092-1.053 0.276-0.338 0.182-0.616 0.457-0.802 0.792-0.188 0.325-0.287 0.694-0.288 1.070 0 0.369 0.094 0.722 0.283 1.061 0.19 0.337 0.454 0.601 0.795 0.789 0.324 0.186 0.691 0.284 1.064 0.284 0.37 0 0.725-0.094 1.064-0.284 0.334-0.182 0.609-0.456 0.792-0.789 0.185-0.323 0.283-0.689 0.283-1.061 0-0.371-0.096-0.729-0.287-1.070-0.184-0.336-0.463-0.611-0.802-0.792-0.342-0.184-0.693-0.276-1.051-0.276v0zM120.104 3.164c0.43 0 0.852 0.11 1.261 0.33 0.405 0.215 0.738 0.544 0.958 0.946 0.23 0.411 0.344 0.838 0.344 1.283 0 0.44-0.112 0.864-0.338 1.271-0.219 0.4-0.549 0.729-0.95 0.948-0.389 0.22-0.828 0.336-1.275 0.336s-0.887-0.116-1.276-0.336c-0.401-0.22-0.73-0.549-0.95-0.948-0.222-0.387-0.339-0.825-0.341-1.271 0-0.445 0.115-0.872 0.346-1.283 0.221-0.401 0.555-0.729 0.959-0.945 0.411-0.221 0.83-0.331 1.262-0.331z"></path>
<path fill="#2164f3" style="fill: var(--color7, #2164f3)" d="M13.967 0.004c-1.285 0.034-2.578 0.302-3.807 0.743-4.761 1.982-8.072 6.305-9.57 11.493-0.253 0.974-0.458 1.948-0.568 2.954 0 0.033-0.079 1.023 0.063 0.756 0.142-0.235 0.205-0.582 0.284-0.849 0.725-2.436 1.609-4.653 2.964-6.76 3.248-4.764 8.466-7.829 13.983-6.131 1.025 0.345 1.939 0.849 2.853 1.446 0.173 0.126 1.45 1.132 1.166 0.22-0.236-0.722-0.835-1.337-1.356-1.824-1.753-1.513-3.871-2.104-6.013-2.048v0zM54.235 4.77c-0.741 0-1.308 0.253-1.702 0.772-0.41 0.502-0.599 1.258-0.599 2.248v7.169c-0.915-1.006-1.86-1.73-2.821-2.218-0.662-0.318-1.37-0.53-2.098-0.628-0.48-0.064-0.965-0.096-1.449-0.094-2.412 0-4.383 0.848-5.864 2.545-1.483 1.698-2.223 4.057-2.223 7.091 0 1.431 0.19 2.766 0.552 3.993 0.379 1.226 0.93 2.295 1.655 3.207 0.697 0.882 1.579 1.601 2.584 2.107 0.994 0.486 2.065 0.738 3.232 0.738 0.521 0 1.025-0.049 1.513-0.142 0.31-0.049 0.616-0.122 0.914-0.219 0.738-0.251 1.435-0.611 2.065-1.069 0.647-0.472 1.277-1.085 1.939-1.824v0.47c0 0.897 0.221 1.573 0.646 2.060 0.425 0.471 0.994 0.724 1.655 0.724 0.646 0 1.214-0.236 1.64-0.692 0.426-0.472 0.63-1.163 0.63-2.092v-21.38c0-0.896-0.189-1.587-0.583-2.059-0.409-0.471-0.977-0.708-1.686-0.708v0zM113.727 4.77c-0.741 0-1.308 0.253-1.701 0.772-0.395 0.502-0.6 1.258-0.6 2.248v7.169c-0.914-1.006-1.861-1.73-2.821-2.218-0.599-0.299-1.308-0.518-2.097-0.628-0.481-0.064-0.965-0.096-1.451-0.094-2.411 0-4.366 0.848-5.864 2.545-1.481 1.698-2.222 4.057-2.222 7.091 0 1.431 0.189 2.766 0.567 3.993s0.914 2.295 1.64 3.207c0.698 0.882 1.58 1.601 2.586 2.107 0.993 0.486 2.066 0.738 3.232 0.738 0.535 0 1.040-0.049 1.513-0.142 0.315-0.047 0.614-0.125 0.914-0.219 0.738-0.251 1.434-0.611 2.065-1.069 0.647-0.472 1.294-1.085 1.939-1.824v0.47c0 0.897 0.221 1.573 0.647 2.060 0.441 0.471 0.993 0.724 1.655 0.724 0.679 0 1.229-0.236 1.656-0.692 0.425-0.472 0.646-1.163 0.646-2.092v-21.38c0-0.896-0.205-1.587-0.599-2.059-0.41-0.471-0.962-0.708-1.704-0.708v0zM12.725 6.080c-0.666-0.017-1.326 0.133-1.919 0.437-1.97 0.99-2.759 3.395-1.75 5.36 0.993 1.966 3.404 2.752 5.375 1.746 1.97-0.991 2.759-3.396 1.75-5.36-0.324-0.642-0.817-1.184-1.425-1.568s-1.31-0.597-2.030-0.615v0zM67.65 11.956c-1.403 0.016-2.68 0.252-3.846 0.691-1.199 0.473-2.207 1.149-3.026 2.014-0.821 0.879-1.451 1.934-1.877 3.159-0.426 1.227-0.646 2.563-0.646 3.993 0 3.050 0.883 5.439 2.617 7.215 1.64 1.683 3.895 2.563 6.779 2.656 0.173 0.017 0.331 0.017 0.504 0.017 1.372 0 2.57-0.173 3.626-0.534 1.056-0.362 1.923-0.802 2.616-1.337 0.71-0.549 1.214-1.116 1.562-1.698 0.347-0.581 0.52-1.1 0.52-1.524 0-0.487-0.157-0.88-0.457-1.149-0.314-0.266-0.726-0.409-1.214-0.409-0.473 0-0.819 0.111-1.072 0.315-0.485 0.46-0.979 0.911-1.481 1.352-0.397 0.333-0.813 0.642-1.246 0.927-0.458 0.283-0.914 0.504-1.403 0.629-0.473 0.141-1.009 0.204-1.592 0.204-0.127 0-0.252 0-0.362-0.016-0.725-0.047-1.403-0.251-2.017-0.629-0.71-0.424-1.294-1.052-1.718-1.87-0.442-0.849-0.663-1.824-0.679-2.924h9.521c1.262 0 2.255-0.189 2.963-0.534 0.694-0.377 1.041-1.164 1.041-2.374 0-1.321-0.331-2.609-1.009-3.882-0.678-1.258-1.702-2.295-3.057-3.098-1.356-0.801-2.997-1.195-4.887-1.195h-0.158zM87.119 11.956c-1.403 0.016-2.696 0.252-3.847 0.691-1.198 0.473-2.207 1.149-3.044 2.014-0.804 0.879-1.433 1.934-1.858 3.159-0.426 1.227-0.647 2.563-0.647 3.993 0 3.050 0.867 5.439 2.601 7.215 1.638 1.683 3.909 2.563 6.795 2.656 0.158 0.017 0.33 0.017 0.503 0.017 1.357 0 2.571-0.173 3.627-0.534 1.055-0.362 1.923-0.802 2.616-1.337 0.695-0.549 1.214-1.116 1.561-1.698 0.346-0.581 0.52-1.1 0.52-1.524 0-0.487-0.158-0.88-0.474-1.149-0.299-0.266-0.709-0.409-1.213-0.409-0.458 0-0.805 0.111-1.057 0.315-0.615 0.566-1.102 1.022-1.481 1.352-0.402 0.333-0.824 0.642-1.262 0.927-0.44 0.283-0.914 0.504-1.387 0.629-0.489 0.141-1.008 0.204-1.592 0.204-0.126 0-0.252 0-0.362-0.016-0.726-0.047-1.404-0.251-2.019-0.629-0.725-0.424-1.292-1.052-1.733-1.87-0.426-0.849-0.647-1.824-0.663-2.924h9.506c1.277 0 2.27-0.189 2.964-0.534 0.71-0.377 1.056-1.164 1.056-2.374 0-1.321-0.346-2.609-1.024-3.882-0.678-1.258-1.688-2.295-3.059-3.098-1.356-0.801-2.978-1.195-4.887-1.195h-0.14zM20.91 11.988c-0.709 0-1.262 0.235-1.656 0.691-0.41 0.44-0.615 1.132-0.615 2.059v14.007c0 0.943 0.221 1.682 0.677 2.186 0.458 0.518 1.025 0.771 1.735 0.771 0.725 0 1.308-0.253 1.766-0.738 0.457-0.503 0.694-1.228 0.694-2.218v-6.052c0-1.997 0.11-3.333 0.346-4.056 0.331-0.911 0.868-1.618 1.577-2.137 0.71-0.503 1.498-0.771 2.365-0.771 1.323 0 2.222 0.425 2.664 1.273 0.441 0.85 0.663 2.075 0.663 3.679v8.064c0 0.943 0.22 1.682 0.677 2.186 0.457 0.518 1.040 0.771 1.765 0.771 0.709 0 1.292-0.253 1.734-0.756 0.442-0.486 0.678-1.226 0.678-2.201v-9.007c0-1.069-0.047-1.95-0.142-2.626-0.095-0.692-0.299-1.335-0.63-1.933-0.504-1.021-1.245-1.808-2.255-2.358s-2.159-0.832-3.436-0.832c-1.324 0-2.491 0.266-3.515 0.786-1.009 0.534-1.938 1.352-2.807 2.483v-0.596c0-0.566-0.094-1.053-0.299-1.463s-0.489-0.707-0.835-0.912c-0.348-0.205-0.726-0.298-1.151-0.298v0zM67.635 15.336h0.015c1.26 0 2.285 0.409 3.058 1.226 0.789 0.817 1.23 2.059 1.356 3.726h-8.827c0.174-1.635 0.647-2.877 1.419-3.71s1.765-1.242 2.98-1.242h0zM87.103 15.336h0.016c1.261 0 2.284 0.409 3.056 1.226 0.773 0.817 1.23 2.059 1.341 3.726h-8.811c0.157-1.635 0.63-2.877 1.419-3.71 0.773-0.833 1.766-1.242 2.98-1.242zM46.953 15.619h0.061c0.836 0 1.608 0.252 2.302 0.74 0.725 0.487 1.294 1.194 1.718 2.122 0.411 0.928 0.631 2.044 0.631 3.333 0 1.383-0.22 2.53-0.631 3.442-0.425 0.912-0.993 1.587-1.702 2.027-0.694 0.44-1.483 0.662-2.318 0.662h-0.015c-0.851 0-1.624-0.236-2.334-0.692-0.724-0.471-1.277-1.163-1.686-2.075-0.41-0.928-0.615-2.044-0.615-3.364 0-1.242 0.19-2.343 0.568-3.27 0.394-0.943 0.93-1.667 1.639-2.17 0.694-0.519 1.498-0.755 2.381-0.755v0zM106.46 15.619h0.048c0.836 0 1.608 0.252 2.317 0.74 0.709 0.487 1.278 1.194 1.703 2.122s0.631 2.044 0.631 3.333c0 1.383-0.205 2.53-0.631 3.442s-0.994 1.587-1.688 2.027c-0.698 0.438-1.507 0.668-2.332 0.662h-0.015c-0.851 0-1.624-0.236-2.334-0.692-0.709-0.471-1.276-1.163-1.686-2.075-0.41-0.928-0.615-2.044-0.615-3.364 0-1.242 0.187-2.342 0.582-3.27 0.379-0.943 0.931-1.667 1.624-2.17 0.711-0.519 1.498-0.755 2.395-0.755v0zM15.424 15.777c-1.262 0.753-2.743 1.178-4.319 1.178-0.33 0-0.646-0.015-0.977-0.047v11.57c0 1.069 0.252 1.871 0.742 2.406 0.504 0.55 1.12 0.817 1.892 0.817 0.787 0 1.435-0.267 1.922-0.802 0.49-0.535 0.741-1.336 0.741-2.421v-12.701z"></path>
</symbol>
<symbol id="icon-coursera" viewBox="0 0 228 32">
<path fill="#002979" style="fill: var(--color8, #002979)" d="M114.301 10.158c0.139-2.672 1.097-4.856 2.594-6.56v-2.269h-1.99c-4.022 0-7.427 1.542-9.406 5.024h-0.116v-4.641h-10.316v28.303h10.318v-11.426c0-4.85 1.419-8.547 7.145-8.547 0.623 0.004 1.207 0.040 1.771 0.116v0zM192.422 10.055c0.856-2.501 2.246-4.729 4.054-6.517v-2.211h-1.987c-4.024 0-7.425 1.541-9.414 5.022h-0.111v-4.637h-10.323v28.303h10.323v-11.426c0-4.85 1.423-8.547 7.149-8.547l0.31 0.012zM135.255 8.994c-1.591-0.827-3.807-1.379-5.569-1.379-1.184 0-3.228 0.493-3.228 1.931 0 1.933 3.228 2.207 4.656 2.489 4.81 0.935 8.448 3.144 8.448 8.379 0 7.446-6.976 10.546-13.728 10.546-4.142 0-8.216-1.16-11.738-3.258l3.742-7.012c2.095 1.44 5.612 2.87 8.164 2.87 1.305 0 3.232-0.604 3.232-2.15 0-2.207-3.232-2.323-6.468-3.149-3.228-0.827-6.456-2.369-6.456-7.446 0-6.953 6.456-10.038 12.82-10.038 3.29 0 6.58 0.494 9.58 1.819l-3.452 6.397zM227.419 30.015h-10.318v-3.149h-0.114c-1.814 2.814-5.394 4.081-8.791 4.081-8.625 0-14.688-7.008-14.688-15.119 0-8.103 5.956-15.058 14.573-15.058 3.343 0 6.865 1.213 9.019 3.694v-2.752h10.316l0.005 28.303h-0.001zM204.17 15.89c0 3.584 2.442 6.343 6.633 6.343 4.195 0 6.627-2.754 6.627-6.343 0-3.476-2.432-6.399-6.627-6.399-4.191 0.003-6.633 2.923-6.633 6.399zM173.014 17.549h-21.725c0 4.079 2.218 6.284 6.469 6.284 2.211 0 3.796-0.714 4.933-2.592h9.928c-1.645 6.677-8.169 9.711-14.802 9.711-9.633 0-16.836-5.3-16.836-15.060 0-9.434 6.627-15.115 16.097-15.115 10.092 0 15.94 6.071 15.94 15.721l-0.005 1.051 0.001-0zM163.428 11.752c-0.512-2.704-3.063-4.468-5.839-4.468-3.009 0-5.494 1.54-6.127 4.468h11.967zM62.248 15.397c-0.011-0.242-0.027-0.483-0.046-0.724v-0.009c-0.232-2.626-1.099-5.083-2.571-7.303-0.648-0.978-1.403-1.882-2.249-2.695-1.228-1.181-2.649-2.159-4.252-2.931-2.411-1.152-5.075-1.733-7.918-1.733-0.278 0-0.569 0.004-0.861 0.015-1.996 0.090-3.927 0.469-5.742 1.137-1.83 0.661-3.424 1.535-4.728 2.584-0.265 0.211-0.554 0.469-0.863 0.754l-0.224 0.219-0.305 0.324h0.004l-0.143 0.141-0.069 0.076-0.364 0.383c-0.262 0.295-0.518 0.596-0.766 0.904l-0.002-0.004-0.009-0.008c-0.499 0.607-0.96 1.234-1.299 1.798-0.231 0.364-0.454 0.734-0.669 1.108l-2.975 6.017 0.004 0.004-0.156 0.306-0.329 0.665c-0.652 1.32-1.352 2.636-2.133 3.723-1.741 1.91-3.71 2.845-6.241 2.845-0.177 0-0.358-0.009-0.543-0.019-1.525-0.061-2.832-0.421-3.992-1.108-0.122-0.072-0.243-0.148-0.361-0.227-0.947-0.63-1.674-1.438-2.217-2.447-0.613-1.144-0.884-2.312-0.846-3.55 0.002-0.034 0.004-0.063 0.004-0.091 0.082-1.971 0.834-3.504 2.348-4.828 0.36-0.309 0.747-0.586 1.156-0.827 0.057-0.034 0.114-0.065 0.171-0.095 1.124-0.613 2.405-0.918 3.872-0.918l0.457 0.012c2.331 0.089 4.13 0.817 5.564 2.238l4.498-8.075c-1.076-0.72-2.291-1.34-3.63-1.843-0.051-0.019-0.103-0.040-0.156-0.057-0.16-0.057-0.318-0.116-0.482-0.169-1.423-0.476-2.916-0.768-4.453-0.901-0.038-0.007-0.080-0.011-0.118-0.015-0.236-0.015-0.476-0.045-0.712-0.055-0.256-0.010-0.513-0.015-0.769-0.017h-0.146c-2.828 0.010-5.455 0.59-7.858 1.737-2.691 1.297-4.873 3.186-6.49 5.62-1.613 2.435-2.493 5.137-2.619 8.036-0.011 0.246-0.016 0.491-0.017 0.737-0.002 4.055 1.476 7.622 4.415 10.616 3.068 3.142 7.059 4.835 11.849 5.035 0.307 0.013 0.611 0.021 0.914 0.021 2.71 0 5.218-0.482 7.467-1.447 0.563-0.24 1.108-0.522 1.666-0.836 0.304-0.175 0.59-0.36 0.874-0.558l0.211-0.141 0.354-0.242c0.422-0.306 0.826-0.636 1.211-0.988l0.135-0.128c0.228-0.215 0.451-0.436 0.669-0.661l0.807-0.912 0.307-0.386 0.143-0.21 0.143-0.207c1.198-2.013 5.098-9.339 5.098-9.339v-0.015l0.232-0.447 0.194-0.35c0.575-1.047 0.99-1.79 1.54-2.571l0.015-0.023c1.283-1.859 3.487-3.184 6.086-3.407 4.359-0.375 8.179 2.489 8.53 6.397 0.35 3.908-2.902 7.381-7.261 7.758-0.908 0.078-1.79 0.017-2.622-0.167l-0.021 0.009c-3.198-0.666-5.235-2.999-6.239-4.041l-4.195 7.713c0 0 1.304 1.314 2.197 1.971 0.895 0.655 2.051 1.3 2.973 1.699 2.238 0.956 4.672 1.529 7.361 1.529 0.312 0 0.249 0 0.573-0.012 4.786-0.2 9.052-2.034 12.129-5.176 2.914-2.984 4.496-6.391 4.51-10.424v-0.12c-0.003-0.225-0.008-0.45-0.017-0.676v0zM78.293 30.971c-2.175 0-4.148-0.253-5.919-0.758s-3.283-1.304-4.536-2.398c-1.257-1.096-2.226-2.489-2.908-4.18s-1.023-3.729-1.023-6.105v-15.824h9.954v15.698c0 1.78 0.425 3.068 1.274 3.873 0.851 0.806 1.932 1.209 3.241 1.209 1.339 0 2.426-0.375 3.264-1.127 0.834-0.752 1.255-1.998 1.255-3.75v-15.903h9.954v15.617c0 2.46-0.349 4.55-1.047 6.271-0.697 1.723-1.68 3.129-2.946 4.224-1.272 1.095-2.802 1.891-4.603 2.398-1.801 0.503-3.786 0.756-5.959 0.756v0z"></path>
</symbol>
<symbol id="icon-elecom" viewBox="0 0 135 32">
<path fill="#727171" style="fill: var(--color9, #727171)" d="M45.506 26.822h-0.92v4.526h3.152v-0.816h-2.235v-3.708l0.003-0.003zM76.995 31.348h0.92v-4.526h-0.92v4.526zM51.005 29.438h2.194v-0.819h-2.194v-0.977h2.355v-0.82h-3.271v4.526h3.289v-0.816h-2.372v-1.095zM40.202 28.649l-1.167-1.827h-1.095l1.781 2.696v1.831h0.92v-1.833l1.763-2.696h-1.070l-1.132 1.828zM9.748 31.346h0.915v-4.523h-0.917v4.526l0.003-0.003zM14.118 31.346h0.916v-1.907h1.938v-0.82h-1.938v-0.977h2.211v-0.82h-3.127v4.523zM32.484 27.638h1.407v3.708h0.92v-3.708h1.407v-0.816h-3.733v0.816zM21.289 29.439h2.19v-0.82h-2.19v-0.977h2.356v-0.82h-3.276v4.526h3.289v-0.816h-2.369v-1.094zM4.585 26.826h-0.917v4.526h3.152v-0.82h-2.235v-3.706zM29.896 29.034c-0.145-0.102-0.306-0.181-0.476-0.233-0.167-0.057-0.337-0.105-0.51-0.144-0.148-0.034-0.296-0.068-0.444-0.099l-0.052-0.011c-0.14-0.027-0.278-0.067-0.41-0.12-0.091-0.032-0.173-0.084-0.241-0.152-0.024-0.026-0.042-0.056-0.053-0.089s-0.016-0.068-0.013-0.103c-0.002-0.088 0.018-0.175 0.059-0.253 0.035-0.066 0.088-0.121 0.154-0.158 0.075-0.045 0.158-0.076 0.244-0.092 0.101-0.022 0.205-0.032 0.309-0.031 0.218-0.013 0.433 0.046 0.612 0.168 0.080 0.063 0.144 0.143 0.189 0.234s0.068 0.19 0.069 0.29l0.017 0.158h0.879l-0.008-0.181c-0.001-0.229-0.052-0.455-0.151-0.662-0.086-0.186-0.217-0.35-0.381-0.477-0.162-0.126-0.349-0.217-0.549-0.268-0.412-0.113-0.848-0.113-1.26 0-0.197 0.047-0.383 0.131-0.549 0.247-0.167 0.111-0.304 0.261-0.4 0.436-0.105 0.195-0.157 0.413-0.151 0.634-0.010 0.185 0.031 0.37 0.119 0.534s0.22 0.302 0.382 0.399c0.149 0.094 0.31 0.166 0.48 0.216 0.172 0.048 0.335 0.093 0.507 0.131l0.089 0.014c0.137 0.031 0.273 0.061 0.405 0.089 0.138 0.026 0.273 0.068 0.4 0.127 0.094 0.037 0.177 0.095 0.244 0.169 0.051 0.068 0.076 0.152 0.071 0.237 0.004 0.098-0.020 0.195-0.067 0.281-0.046 0.071-0.109 0.129-0.185 0.168-0.091 0.050-0.189 0.085-0.291 0.104-0.252 0.053-0.514 0.045-0.763-0.024-0.119-0.027-0.232-0.078-0.329-0.151-0.093-0.066-0.17-0.153-0.224-0.253-0.059-0.115-0.089-0.242-0.086-0.371v-0.168h-0.886v0.174c-0.004 0.254 0.050 0.506 0.157 0.737 0.102 0.202 0.248 0.379 0.43 0.517 0.184 0.134 0.391 0.233 0.612 0.292 0.234 0.066 0.477 0.098 0.721 0.096 0.21-0.001 0.418-0.025 0.622-0.072 0.208-0.047 0.405-0.128 0.585-0.24 0.178-0.114 0.328-0.265 0.44-0.442 0.124-0.199 0.186-0.429 0.179-0.662 0.006-0.208-0.041-0.415-0.137-0.601-0.087-0.158-0.21-0.293-0.359-0.397v0.003zM111.22 27.645h1.406v3.708h0.917v-3.708h1.41v-0.823h-3.729v0.82l-0.003 0.003zM124.562 27.464c-0.171-0.223-0.392-0.406-0.643-0.535-0.28-0.132-0.586-0.2-0.898-0.2s-0.617 0.069-0.897 0.2c-0.252 0.129-0.471 0.312-0.64 0.535-0.175 0.227-0.304 0.484-0.381 0.758-0.083 0.282-0.125 0.574-0.125 0.868s0.042 0.587 0.125 0.87c0.077 0.274 0.207 0.532 0.381 0.758 0.171 0.223 0.391 0.406 0.643 0.535 0.278 0.134 0.585 0.201 0.896 0.195 0.311 0.005 0.617-0.063 0.895-0.199 0.252-0.128 0.472-0.31 0.643-0.532 0.173-0.226 0.301-0.482 0.379-0.754 0.085-0.287 0.127-0.584 0.125-0.882 0.002-0.294-0.041-0.586-0.125-0.868-0.077-0.273-0.205-0.529-0.379-0.755v0.004zM124.192 29.083c-0.001 0.197-0.026 0.392-0.073 0.583-0.043 0.176-0.117 0.344-0.216 0.497-0.092 0.139-0.215 0.254-0.362 0.337-0.159 0.084-0.338 0.127-0.519 0.127s-0.36-0.044-0.52-0.127c-0.145-0.083-0.269-0.198-0.36-0.337-0.102-0.152-0.176-0.32-0.218-0.497-0.046-0.191-0.069-0.387-0.069-0.583 0-0.195 0.023-0.389 0.069-0.579 0.043-0.178 0.117-0.347 0.218-0.5 0.093-0.137 0.216-0.252 0.36-0.337 0.159-0.086 0.34-0.129 0.522-0.123 0.18-0.005 0.358 0.037 0.515 0.123 0.144 0.085 0.267 0.2 0.362 0.337 0.1 0.154 0.174 0.323 0.216 0.5 0.048 0.189 0.074 0.384 0.075 0.579v0zM117.3 31.346h0.92v-4.523h-0.92v4.523zM130.256 27.145v2.771l-1.959-2.771h-0.869v4.224h0.888v-2.739l1.891 2.664 0.052 0.076h0.885v-4.225h-0.888zM108.132 26.822h-0.864l-1.784 4.526h0.962l0.472-1.255h1.533l0.462 1.255h1.007l-1.742-4.412-0.046-0.114zM108.15 29.273h-0.925l0.466-1.268 0.458 1.268zM83.836 29.805l-1.959-2.983h-0.871v4.526h0.889v-2.945l1.938 2.945h0.891v-4.526h-0.886v2.983h-0.002zM90.613 29.805l-1.956-2.98h-0.873v4.526h0.888v-2.949l1.942 2.949h0.888v-4.529h-0.888v2.979l-0.002 0.004zM97.885 27.46c-0.189-0.226-0.425-0.408-0.692-0.535-0.302-0.132-0.629-0.2-0.959-0.2s-0.656 0.068-0.958 0.2c-0.266 0.126-0.501 0.307-0.688 0.532s-0.329 0.482-0.419 0.758c-0.089 0.281-0.134 0.574-0.134 0.868 0 0.297 0.045 0.593 0.134 0.877 0.089 0.276 0.231 0.533 0.416 0.758 0.188 0.225 0.425 0.407 0.693 0.531 0.303 0.129 0.629 0.196 0.958 0.196s0.656-0.067 0.959-0.196c0.266-0.123 0.501-0.303 0.688-0.527 0.189-0.224 0.329-0.481 0.416-0.758 0.093-0.285 0.139-0.582 0.138-0.881 0.002-0.295-0.044-0.589-0.137-0.87-0.086-0.276-0.226-0.533-0.413-0.756l-0.002 0.003zM97.517 29.083c0 0.196-0.026 0.391-0.078 0.58-0.042 0.177-0.121 0.344-0.23 0.49-0.101 0.144-0.237 0.262-0.396 0.343-0.179 0.085-0.374 0.129-0.573 0.129s-0.395-0.044-0.574-0.129c-0.158-0.082-0.295-0.2-0.399-0.343-0.106-0.148-0.184-0.315-0.23-0.49-0.051-0.19-0.077-0.386-0.078-0.583 0.001-0.194 0.025-0.388 0.074-0.576 0.048-0.179 0.128-0.349 0.237-0.501 0.111-0.15 0.257-0.273 0.425-0.357s0.355-0.128 0.545-0.128 0.375 0.044 0.544 0.128c0.169 0.084 0.315 0.207 0.425 0.357 0.108 0.15 0.188 0.318 0.234 0.496 0.050 0.191 0.074 0.387 0.074 0.584v0zM102.365 30.067l-1.041-3.127-0.042-0.12h-0.983l1.609 4.526h0.888l1.627-4.526h-0.965l-1.092 3.247z"></path>
<path fill="#014099" style="fill: var(--color10, #014099)" d="M104.065 2.421c-0.758-0.736-1.782-1.148-2.849-1.145h-13.432c-0.528-0.002-1.053 0.099-1.541 0.296s-0.934 0.486-1.309 0.851c-0.771 0.979-1.186 2.182-1.18 3.419v8.528c-0.007 1.252 0.408 2.472 1.18 3.469 0.375 0.365 0.82 0.654 1.309 0.851s1.013 0.297 1.541 0.295h13.43c0.528 0.002 1.052-0.099 1.541-0.295s0.933-0.486 1.308-0.851c0.772-0.997 1.187-2.217 1.181-3.469v-8.529c0.006-1.237-0.409-2.44-1.181-3.419h0.002zM100.982 13.863c0 0.376-0.15 0.206-0.43 0.473-0.135 0.132-0.295 0.236-0.471 0.306s-0.364 0.107-0.554 0.106h-9.973c-0.384 0.001-0.753-0.147-1.027-0.412s-0.424-0.096-0.424-0.473v-6.994c0-0.185 0.037-0.368 0.11-0.539s0.18-0.326 0.314-0.455c0.273-0.265 0.643-0.414 1.027-0.413h9.979c0.19-0.001 0.379 0.035 0.554 0.106s0.336 0.175 0.471 0.307c0.136 0.129 0.244 0.284 0.317 0.454s0.112 0.354 0.112 0.54v6.994h-0.006zM130.992 5.18c0.002-0.514-0.102-1.023-0.305-1.497s-0.5-0.904-0.875-1.263c-0.791-0.738-1.842-1.148-2.934-1.143h-18.147v17.707h4.262v-12.121c-0.001-0.185 0.037-0.369 0.11-0.54s0.18-0.326 0.315-0.456c0.272-0.264 0.641-0.411 1.025-0.41h1.392c0.384-0.002 0.752 0.145 1.025 0.41 0.136 0.13 0.244 0.284 0.317 0.455s0.112 0.355 0.112 0.541v12.121h4.285v-12.121c0-0.186 0.038-0.37 0.112-0.541s0.183-0.326 0.318-0.455c0.273-0.264 0.642-0.411 1.026-0.41h2.256c0.384-0.002 0.752 0.145 1.025 0.41 0.137 0.129 0.245 0.284 0.318 0.455s0.112 0.355 0.112 0.541v12.121h4.262v-13.803h-0.009zM63.131 5.837c-0.007-1.236 0.409-2.439 1.18-3.417 0.801-0.739 1.86-1.148 2.959-1.144h13.872v4.184h-12.274c-0.191-0.001-0.381 0.034-0.558 0.105s-0.338 0.175-0.474 0.306c-0.135 0.13-0.242 0.285-0.315 0.455s-0.11 0.354-0.11 0.539v7.001c0 0.375 0.152 0.206 0.425 0.472 0.136 0.132 0.297 0.236 0.474 0.307s0.367 0.106 0.558 0.105h12.276v4.235h-13.874c-1.099 0.005-2.158-0.405-2.958-1.145-0.772-0.998-1.187-2.217-1.18-3.469v-8.534l-0.002 0.001zM40.808 18.982h-12.443c-0.514 0.001-1.022-0.1-1.495-0.297s-0.9-0.486-1.256-0.849c-0.775-1.048-1.188-2.31-1.18-3.604v-12.957h4.318v12.453c0 0.377 0.15 0.206 0.425 0.474 0.273 0.264 0.642 0.411 1.025 0.409h10.61v4.371h-0.003zM3.784 1.276h18.055v4.142h-11.998c-0.383-0.002-0.752 0.146-1.025 0.41-0.134 0.11-0.242 0.248-0.316 0.403s-0.113 0.325-0.114 0.497v0.645c0 0.186 0.038 0.37 0.112 0.541s0.182 0.326 0.318 0.455c0.273 0.264 0.641 0.412 1.025 0.41h11.412v3.392h-11.412c-0.19-0.001-0.379 0.035-0.555 0.105s-0.336 0.175-0.47 0.307c-0.275 0.265-0.43-0.224-0.43 0.151v1.091c0 0.377 0.15 0.206 0.43 0.474 0.273 0.264 0.641 0.412 1.025 0.411h11.998v4.274h-14.025c-1.067 0.003-2.092-0.409-2.849-1.146-0.375-0.36-0.673-0.789-0.875-1.264s-0.306-0.984-0.305-1.498v-13.801zM42.522 1.276h18.034v4.181h-11.761c-0.384-0.002-0.752 0.146-1.025 0.411-0.136 0.129-0.244 0.284-0.318 0.455s-0.112 0.354-0.112 0.54v0.649c0 0.186 0.038 0.37 0.112 0.541s0.182 0.326 0.318 0.455c0.273 0.264 0.641 0.412 1.025 0.41h10.852v3.296h-10.852c-0.19-0.001-0.379 0.035-0.554 0.105s-0.336 0.175-0.47 0.307c-0.275 0.266-0.43-0.223-0.43 0.151v1.095c0 0.376 0.151 0.206 0.43 0.473 0.273 0.265 0.641 0.413 1.025 0.411h11.739v4.235h-13.767c-1.067 0.003-2.093-0.409-2.85-1.146-0.839-1.028-1.327-2.289-1.395-3.604v-12.966zM69.137 31.534v-3.404c0.001-0.289-0.115-0.567-0.322-0.773-0.102-0.102-0.223-0.182-0.357-0.237s-0.278-0.083-0.423-0.083h-0.506c-0.134 0-0.266 0.029-0.388 0.084s-0.229 0.136-0.316 0.236c-0.208 0.206-0.324 0.483-0.323 0.773v3.404h-2.534v-3.404c0.001-0.289-0.116-0.567-0.323-0.773-0.249-0.208-0.566-0.322-0.893-0.32h-0.357c-0.145-0-0.289 0.028-0.423 0.083s-0.255 0.136-0.356 0.238c-0.103 0.102-0.185 0.222-0.24 0.355s-0.084 0.275-0.083 0.418v3.404h-2.499v-6.643h12.853v6.643h-2.509z"></path>
</symbol>
<symbol id="icon-rating" viewBox="0 0 160 32">
<path fill="#fbbf24" style="fill: var(--color11, #fbbf24); stroke: var(--color12, #f59e0b)" stroke="#f59e0b" stroke-linejoin="round" stroke-linecap="round" stroke-miterlimit="4" stroke-width="2" d="M16 6.333l2.333 7.333h7.333l-6 4.667 2 7.333-5.667-4.667-5.667 4.667 2-7.333-6-4.667h7.333l2.333-7.333z"></path>
<path fill="#fbbf24" style="fill: var(--color11, #fbbf24); stroke: var(--color12, #f59e0b)" stroke="#f59e0b" stroke-linejoin="round" stroke-linecap="round" stroke-miterlimit="4" stroke-width="2" d="M48 6.333l2.333 7.333h7.333l-6 4.667 2 7.333-5.667-4.667-5.667 4.667 2-7.333-6-4.667h7.333l2.333-7.333z"></path>
<path fill="#fbbf24" style="fill: var(--color11, #fbbf24); stroke: var(--color12, #f59e0b)" stroke="#f59e0b" stroke-linejoin="round" stroke-linecap="round" stroke-miterlimit="4" stroke-width="2" d="M80 6.333l2.333 7.333h7.333l-6 4.667 2 7.333-5.667-4.667-5.667 4.667 2-7.333-6-4.667h7.333l2.333-7.333z"></path>
<path fill="#fbbf24" style="fill: var(--color11, #fbbf24); stroke: var(--color12, #f59e0b)" stroke="#f59e0b" stroke-linejoin="round" stroke-linecap="round" stroke-miterlimit="4" stroke-width="2" d="M112 6.333l2.333 7.333h7.333l-6 4.667 2 7.333-5.667-4.667-5.667 4.667 2-7.333-6-4.667h7.333l2.333-7.333z"></path>
<path fill="#fef3c7" style="fill: var(--color13, #fef3c7); stroke: var(--color14, #fcd34d)" stroke="#fcd34d" stroke-linejoin="round" stroke-linecap="round" stroke-miterlimit="4" stroke-width="2" d="M144 6.333l2.333 7.333h7.333l-6 4.667 2 7.333-5.667-4.667-5.667 4.667 2-7.333-6-4.667h7.333l2.333-7.333z"></path>
</symbol>
<symbol id="icon-udemy" viewBox="0 0 114 32">
<path fill="#675d55" style="fill: var(--color15, #675d55)" d="M88.983 16.846v7.261h-3.243v-10.622h2.27l0.68 0.84c2.333-1.774 5.053-1.307 6.318 0.332l0.597-0.456c1.297-0.985 2.741-1.234 4.29-0.819 0.973 0.259 1.715 0.851 2.050 1.794 0.251 0.726 0.471 1.494 0.491 2.251 0.063 2.137 0.031 4.274 0.031 6.41-0.010 0.104-0.021 0.197-0.042 0.29h-3.243v-5.311c0-0.207 0-0.425-0.021-0.633-0.136-1.618-1.056-2.23-2.626-1.732-0.283 0.104-0.544 0.228-0.805 0.363v7.292h-3.306v-5.612c-0.042-2.023-1.298-2.749-3.128-1.826-0.094 0.031-0.168 0.083-0.314 0.176v0z"></path>
<path fill="#665c54" style="fill: var(--color16, #665c54)" d="M56.981 9.885h3.41c0.021 0.166 0.042 0.301 0.042 0.436-0.010 2.79-0.010 5.591-0.042 8.381-0.011 0.519-0.073 1.027-0.188 1.535-0.492 2.22-1.852 3.568-4.132 3.994-1.538 0.301-3.128 0.28-4.645-0.073-2.103-0.498-3.4-2.064-3.672-4.398-0.094-0.913-0.147-1.826-0.147-2.738-0.021-2.137-0.010-4.274-0.010-6.41v-0.726h3.431v0.799c0 2.303-0.021 4.605 0.010 6.908 0.010 0.654 0.105 1.307 0.272 1.94 0.199 0.778 0.753 1.349 1.569 1.463 0.764 0.114 1.548 0.114 2.312 0 0.942-0.145 1.433-0.861 1.622-1.753 0.105-0.529 0.157-1.068 0.157-1.608 0.021-2.552 0.011-5.114 0.011-7.748v0zM72.61 24.127h-2.019l-0.596-0.736c-1.13 0.809-2.396 1.068-3.766 0.975-2.186-0.156-3.714-1.359-4.3-3.454-0.377-1.317-0.377-2.707 0.010-4.025 0.628-2.137 2.438-3.579 4.687-3.662 0.889-0.031 1.778 0.083 2.72 0.145v-4.357h3.264v15.113zM69.336 21.057v-4.699c-0.199-0.093-0.377-0.197-0.575-0.259-1.663-0.581-3.17 0.073-3.599 1.587-0.105 0.332-0.157 0.685-0.157 1.037 0.021 1.037 0.199 2.054 1.245 2.583 1.046 0.519 2.103 0.384 3.086-0.249z"></path>
<path fill="#675c55" style="fill: var(--color17, #675c55)" d="M84.317 19.293h-6.747c-0.188 0.954 0.418 1.909 1.433 2.22 1.141 0.353 2.291 0.239 3.421-0.104 0.471-0.145 0.91-0.363 1.413-0.57l-0.429 2.5c-0.701 0.602-1.538 0.851-2.417 0.954-1.182 0.135-2.364 0.104-3.515-0.259-1.569-0.508-2.636-1.535-3.118-3.102-0.429-1.38-0.45-2.852-0.042-4.232 0.575-2.012 2.218-3.34 4.331-3.475 0.586-0.052 1.182-0.041 1.768 0.042 1.621 0.259 2.751 1.182 3.358 2.697 0.429 1.037 0.586 2.147 0.544 3.33zM77.486 17.685h4.122c-0.094-1.348-1.057-1.992-1.988-1.992-1.192 0.010-1.966 0.705-2.134 1.992z"></path>
<path fill="#665c55" style="fill: var(--color18, #665c55)" d="M106.203 13.485c0.408 1.151 0.806 2.292 1.214 3.433 0.398 1.151 0.795 2.303 1.256 3.62l2.344-7.064h3.243l-5.659 14.221h-3.285l1.559-3.942-4.299-10.269h3.63z"></path>
<path fill="#ec5250" style="fill: var(--color19, #ec5250)" d="M25.429 15.787l-0.471 0.965c-1.486 3.288-3.107 6.514-5.22 9.47-1.119 1.566-2.364 3.008-3.944 4.149-1.423 1.017-2.992 1.639-4.771 1.629-1.935-0.010-3.494-0.799-4.645-2.344-1.046-1.411-1.465-3.039-1.59-4.761-0.167-2.303 0.23-4.543 0.753-6.763 0.126-0.519 0.23-1.037 0.366-1.649-0.471 0.27-0.868 0.508-1.266 0.716-0.67 0.363-1.381 0.581-2.155 0.56-1.517-0.073-2.5-1.172-2.458-2.718 1.119-0.965 2.249-1.836 3.254-2.842 2.668-2.666 4.708-5.778 6.267-9.19 0.22-0.508 0.481-1.006 0.764-1.483 0.743-1.183 1.935-1.712 3.17-1.452 1.182 0.249 1.925 1.131 2.166 2.541 0.314 1.815-0.063 3.568-0.481 5.311-0.837 3.423-1.716 6.846-2.532 10.279-0.398 1.68-0.617 3.392-0.502 5.124 0.031 0.508 0.136 1.017 0.303 1.494 0.356 0.934 1.182 1.172 1.956 0.529 0.481-0.415 0.91-0.871 1.297-1.369 2.186-2.749 3.986-5.747 5.597-8.848 1.37-2.645 2.72-5.301 4.090-7.946 0.23-0.456 0.502-0.892 0.764-1.328 1.025-1.67 3.526-1.525 4.53 0.124 0.544 0.892 0.806 1.888 0.879 2.915 0.084 1.068 0.105 2.137 0.146 3.205 0.094 2.323 0.178 4.647 0.293 6.97 0.031 0.436 0.126 0.871 0.293 1.286 0.303 0.778 0.879 1.068 1.684 0.83 0.45-0.125 0.879-0.322 1.255-0.591 1.067-0.799 2.082-1.649 3.191-2.541 0.46 0.135 0.732 0.539 0.889 1.048 0.293 0.965 0.105 1.898-0.251 2.79-0.994 2.51-2.961 3.921-5.524 4.481-0.983 0.197-1.998 0.239-3.003 0.104-1.956-0.239-3.264-1.411-4.028-3.195-0.711-1.66-0.879-3.413-0.952-5.186-0.031-0.757 0-1.514 0-2.282l-0.115-0.031z"></path>
</symbol>
<symbol id="icon-facebook" viewBox="0 0 15 32">
<path fill="#fff" style="fill: var(--color20, #fff)" d="M10.177 31.829v-15.748h4.527l0.6-5.543h-5.127l0.008-2.774c0-1.446 0.14-2.22 2.257-2.22h2.831v-5.544h-4.528c-5.439 0-7.354 2.689-7.354 7.211v3.328h-3.391v5.543h3.391v15.524c1.321 0.258 2.687 0.394 4.085 0.394 0.903 0 1.806-0.057 2.701-0.171v0z"></path>
</symbol>
<symbol id="icon-quotes" viewBox="0 0 40 32">
<path fill="#d2d2d2" style="fill: var(--color21, #d2d2d2)" d="M36.361 27.213c3.746-4.066 3.369-9.287 3.357-9.346v-15.881c0-0.526-0.209-1.031-0.581-1.404s-0.877-0.581-1.404-0.581h-11.911c-2.19 0-3.97 1.781-3.97 3.97v13.896c0 0.526 0.209 1.031 0.581 1.404s0.877 0.581 1.404 0.581h6.11c-0.042 0.981-0.335 1.936-0.852 2.771-1.009 1.59-2.908 2.676-5.65 3.224l-1.594 0.318v5.598h1.985c5.525 0 9.739-1.531 12.525-4.55zM14.51 27.213c3.748-4.066 3.369-9.287 3.357-9.346v-15.881c0-0.526-0.209-1.031-0.581-1.404s-0.877-0.581-1.404-0.581h-11.911c-2.19 0-3.97 1.781-3.97 3.97v13.896c0 0.526 0.209 1.031 0.581 1.404s0.877 0.581 1.404 0.581h6.11c-0.042 0.981-0.335 1.936-0.852 2.771-1.008 1.59-2.908 2.676-5.65 3.224l-1.594 0.318v5.598h1.985c5.525 0 9.739-1.531 12.525-4.55z"></path>
</symbol>
<symbol id="icon-twitter" viewBox="0 0 37 32">
<path fill="#fff" style="fill: var(--color20, #fff)" d="M37.053 3.789c-1.363 0.642-2.826 1.075-4.365 1.271 1.57-0.999 2.774-2.584 3.342-4.47-1.469 0.926-3.096 1.599-4.827 1.959-1.387-1.567-3.362-2.549-5.548-2.549-4.197 0-7.601 3.617-7.601 8.081 0 0.619 0.066 1.235 0.196 1.838-6.32-0.338-11.919-3.555-15.669-8.441-0.653 1.196-1.028 2.584-1.028 4.061 0 2.802 1.343 5.277 3.381 6.725-1.207-0.041-2.388-0.387-3.443-1.011v0.104c0 3.914 2.619 7.179 6.098 7.921-0.653 0.187-1.326 0.282-2.002 0.281-0.48 0-0.959-0.047-1.431-0.142 0.968 3.208 3.774 5.545 7.102 5.608-2.603 2.167-5.881 3.459-9.442 3.459-0.614 0-1.219-0.038-1.815-0.113 3.365 2.294 7.36 3.629 11.651 3.629 13.985 0 21.63-12.308 21.63-22.983 0-0.347-0.008-0.697-0.023-1.044 1.485-1.141 2.774-2.561 3.791-4.179l0.003-0.005z"></path>
</symbol>
<symbol id="icon-linkedin" viewBox="0 0 32 32">
<path fill="#fff" style="fill: var(--color20, #fff)" d="M7.238 32h-6.603v-21.333h6.603v21.333zM3.905 7.873c-2.157 0-3.905-1.763-3.905-3.936s1.748-3.937 3.905-3.937 3.905 1.762 3.905 3.937c0 2.174-1.748 3.936-3.905 3.936zM31.984 32h-6.571v-11.198c0-3.071-1.167-4.786-3.595-4.786-2.643 0-4.024 1.786-4.024 4.786v11.198h-6.333v-21.333h6.333v2.873c0 0 1.905-3.524 6.429-3.524s7.762 2.762 7.762 8.476l-0 13.508z"></path>
</symbol>
<symbol id="icon-tik-tok" viewBox="0 0 29 32">
<path fill="#fff" style="fill: var(--color20, #fff)" d="M28.627 12.947c-0.274 0.025-0.548 0.039-0.823 0.040-1.483 0-2.943-0.353-4.248-1.027s-2.413-1.649-3.226-2.836v13.154c0 1.923-0.596 3.803-1.713 5.401s-2.705 2.845-4.562 3.581c-1.857 0.736-3.901 0.928-5.873 0.553s-3.783-1.301-5.205-2.661c-1.422-1.36-2.39-3.092-2.782-4.978s-0.191-3.841 0.578-5.617c0.769-1.777 2.072-3.295 3.744-4.363s3.637-1.639 5.648-1.639c0.212 0 0.42 0.018 0.628 0.031v4.791c-0.209-0.024-0.414-0.060-0.628-0.060-1.376 0-2.696 0.523-3.669 1.453s-1.52 2.193-1.52 3.509c0 1.316 0.547 2.578 1.52 3.509s2.293 1.453 3.669 1.453c2.866 0 5.397-2.16 5.397-4.9l0.050-22.341h4.792c0.219 1.992 1.163 3.846 2.667 5.239s3.472 2.237 5.56 2.383v5.325z"></path>
</symbol>
</defs>
</svg>
